<svg width="59" height="57" viewBox="0 0 59 57" fill="none" xmlns="http://www.w3.org/2000/svg">
<path d="M3 47.7462V21.9351C2.99985 20.9836 3.23983 20.0468 3.69863 19.2078C4.15743 18.3688 4.82088 17.6535 5.6301 17.1255L26.3163 3.63891C27.2875 3.00511 28.4289 2.66687 29.5965 2.66687C30.7641 2.66687 31.9055 3.00511 32.8767 3.63891L53.5629 17.1255C54.3721 17.6535 55.0356 18.3688 55.4944 19.2078C55.9532 20.0468 56.1931 20.9836 56.193 21.9351V47.7462M3 47.7462C3 49.2794 3.62269 50.7497 4.7311 51.8338C5.8395 52.9179 7.34282 53.527 8.91033 53.527H50.2827C51.8502 53.527 53.3535 52.9179 54.4619 51.8338C55.5703 50.7497 56.193 49.2794 56.193 47.7462M3 47.7462L22.9474 34.7395M56.193 47.7462L36.2456 34.7395M22.9474 34.7395L3 21.7327M22.9474 34.7395L26.3163 36.9362C27.2875 37.57 28.4289 37.9082 29.5965 37.9082C30.7641 37.9082 31.9055 37.57 32.8767 36.9362L36.2456 34.7395M36.2456 34.7395L56.193 21.7327" stroke="#1F64FF" stroke-width="5" stroke-linecap="round" stroke-linejoin="round"/>
</svg>
