<svg width="58" height="57" viewBox="0 0 58 57" fill="none" xmlns="http://www.w3.org/2000/svg">
<path d="M17.4444 13.9691V2.66687M40.5556 13.9691V2.66687M14.5556 25.2714H43.4444M8.77778 53.527H49.2222C50.7546 53.527 52.2242 52.9316 53.3077 51.8718C54.3913 50.812 55 49.3746 55 47.8759V13.9691C55 12.4703 54.3913 11.033 53.3077 9.97317C52.2242 8.91338 50.7546 8.31799 49.2222 8.31799H8.77778C7.24542 8.31799 5.77582 8.91338 4.69227 9.97317C3.60873 11.033 3 12.4703 3 13.9691V47.8759C3 49.3746 3.60873 50.812 4.69227 51.8718C5.77582 52.9316 7.24542 53.527 8.77778 53.527Z" stroke="#1F64FF" stroke-width="5" stroke-linecap="round" stroke-linejoin="round"/>
</svg>
