<svg width="58" height="57" viewBox="0 0 58 57" fill="none" xmlns="http://www.w3.org/2000/svg">
    <path d="M29 9.35751V3M29 9.35751C27.2761 9.35751 25.6228 10.0273 24.4038 11.2196C23.1848 12.4119 22.5 14.0289 22.5 15.715C22.5 17.4011 23.1848 19.0182 24.4038 20.2105C25.6228 21.4027 27.2761 22.0725 29 22.0725M29 9.35751C30.7239 9.35751 32.3772 10.0273 33.5962 11.2196C34.8152 12.4119 35.5 14.0289 35.5 15.715C35.5 17.4011 34.8152 19.0182 33.5962 20.2105C32.3772 21.4027 30.7239 22.0725 29 22.0725M29 22.0725V53.8601M9.5 47.5026C11.2239 47.5026 12.8772 46.8328 14.0962 45.6405C15.3152 44.4483 16 42.8312 16 41.1451C16 39.459 15.3152 37.8419 14.0962 36.6496C12.8772 35.4574 11.2239 34.7876 9.5 34.7876M9.5 47.5026C7.77609 47.5026 6.12279 46.8328 4.90381 45.6405C3.68482 44.4483 3 42.8312 3 41.1451C3 39.459 3.68482 37.8419 4.90381 36.6496C6.12279 35.4574 7.77609 34.7876 9.5 34.7876M9.5 47.5026V53.8601M9.5 34.7876V3M48.5 47.5026C50.2239 47.5026 51.8772 46.8328 53.0962 45.6405C54.3152 44.4483 55 42.8312 55 41.1451C55 39.459 54.3152 37.8419 53.0962 36.6496C51.8772 35.4574 50.2239 34.7876 48.5 34.7876M48.5 47.5026C46.7761 47.5026 45.1228 46.8328 43.9038 45.6405C42.6848 44.4483 42 42.8312 42 41.1451C42 39.459 42.6848 37.8419 43.9038 36.6496C45.1228 35.4574 46.7761 34.7876 48.5 34.7876M48.5 47.5026V53.8601M48.5 34.7876V3" stroke="#1F64FF" stroke-width="5" stroke-linecap="round" stroke-linejoin="round"/>
</svg>
